# xmcd
#
# Track frame offsets:
#	150
#	18675
#	34407
#	46745
#	59594
#	70439
#	84089
#	96959
#	107928
#	126566
#	137404
#	146408
#	158971
#	171975
#	183075
#	194925
#	204263
#	216488
#	227401
#	238726
#	254908
#	262933
#	273574
#	285799
#	298803
#	317478
#	330528
#	343128
#
# Disc length: 4739 seconds
#
# Revision: 0
# Processed by: cddbd v1.5.2PL0 Copyright (c) Steve Scherf et al.
# Submitted via: EasyCDDAExtractor 16.0.0.1
#
DISCID=ba12811c
DTITLE=Bo Diddley - Have Guitar, Will Travel and In The Spotlight
DYEAR=2011
DGENRE=Rock - Blues
TTITLE0=She's Allright
TTITLE1=Cops And Robbers
TTITLE2=Run Diddley Daddy
TTITLE3=Mumblin' Guitar
TTITLE4=I Need You Baby
TTITLE5=Say Man, Back Again
TTITLE6=Nursery Rhyme
TTITLE7=I Love You So
TTITLE8=Spanisch Guitar
TTITLE9=Dancing Girl
TTITLE10=Come On Baby
TTITLE11=Road Runner
TTITLE12=Storey Of Bo Diddley
TTITLE13=Scuttle Bug
TTITLE14=Signifying Blues
TTITLE15=Let Me In
TTITLE16=Limber
TTITLE17=Love Me
TTITLE18=Craw-Dad
TTITLE19=Walkin' And Talkin'
TTITLE20=Travelin' West
TTITLE21=Deed And Deed I Do
TTITLE22=Live My Life
TTITLE23=Lazy Woman [bonus track]
TTITLE24=Let Me In [alternate take]
TTITLE25=Bucket [bonus track]
TTITLE26=Heart-O-Matic Love [bonus track]
TTITLE27=Cadillac [bonus track]
EXTD=
EXTT0=
EXTT1=
EXTT2=
EXTT3=
EXTT4=
EXTT5=
EXTT6=
EXTT7=
EXTT8=
EXTT9=
EXTT10=
EXTT11=
EXTT12=
EXTT13=
EXTT14=
EXTT15=
EXTT16=
EXTT17=
EXTT18=
EXTT19=
EXTT20=
EXTT21=
EXTT22=
EXTT23=
EXTT24=
EXTT25=
EXTT26=
EXTT27=
PLAYORDER=
